<!-- Generator: Adobe Illustrator 21.1.0, SVG Export Plug-In  -->
<svg version="1.1"
	 xmlns="http://www.w3.org/2000/svg" xmlns:xlink="http://www.w3.org/1999/xlink" xmlns:a="http://ns.adobe.com/AdobeSVGViewerExtensions/3.0/"
	 x="0px" y="0px" width="625.196px" height="190.197px" viewBox="0 0 625.196 190.197"
	 style="enable-background:new 0 0 625.196 190.197;" xml:space="preserve">
<style type="text/css">
	.st0{fill:#FFFFFF;}
	.st1{fill:#FFFFFF;stroke:#FFFFFF;stroke-width:0;}
</style>
<defs>
</defs>
<rect x="224.644" y="24.896" class="st0" width="42.756" height="110.261"/>
<polygon class="st1" points="625.196,45.076 625.196,24.83 521.686,24.83 521.686,24.823 478.932,24.823 478.932,135.087 
	508.12,135.087 521.686,135.087 625.196,135.087 625.196,114.638 521.686,114.638 521.686,90.082 625.196,90.082 625.196,69.829 
	521.686,69.829 521.686,45.076 "/>
<polygon class="st0" points="415.918,24.896 415.918,90.152 330.407,24.896 287.653,24.896 287.653,135.157 330.407,135.157 
	330.407,69.902 415.918,135.157 458.674,135.157 458.674,24.896 "/>
<g>
	<path class="st0" d="M174.623,99.419H29.254L0,108.869h203.877L174.623,99.419z M29.254,101.666h145.369l9.001,3.602H20.25
		L29.254,101.666z"/>
	<path class="st0" d="M62.787,105.268h72.588c13.912-11.821,28.504-22.866,43.766-32.998C149.825,54.238,125.147,29.415,107.266,0
		C77.927,18.6,52.824,43.256,33.658,72.191C42.2,84.212,51.979,95.29,62.787,105.268z"/>
	<path class="st0" d="M69.365,111.121c10.567,8.979,22.024,16.94,34.227,23.73c8.034-8.217,16.387-16.121,25.002-23.73H69.365z"/>
</g>
<g>
	<path class="st0" d="M0.192,159.839h9.251v29.869H0.192V159.839z"/>
	<path class="st0" d="M15.514,168.069h7.72v3.525c1.157-1.44,2.326-2.469,3.508-3.086c1.179-0.619,2.62-0.928,4.316-0.928
		c2.295,0,4.093,0.682,5.392,2.049c1.296,1.363,1.943,3.473,1.943,6.326v13.752h-8.332V177.81c0-1.357-0.252-2.32-0.754-2.885
		c-0.503-0.562-1.21-0.846-2.119-0.846c-1.007,0-1.821,0.384-2.445,1.143c-0.623,0.762-0.937,2.127-0.937,4.096v10.391h-8.292
		V168.069z"/>
	<path class="st0" d="M41.88,183.698l8.229-0.775c0.34,0.979,0.816,1.678,1.429,2.099c0.61,0.42,1.425,0.631,2.444,0.631
		c1.114,0,1.978-0.235,2.586-0.713c0.475-0.351,0.713-0.792,0.713-1.322c0-0.595-0.31-1.056-0.937-1.383
		c-0.448-0.229-1.637-0.515-3.564-0.853c-2.88-0.501-4.878-0.968-5.999-1.395c-1.121-0.427-2.064-1.149-2.833-2.167
		c-0.767-1.018-1.151-2.178-1.151-3.48c0-1.426,0.413-2.654,1.243-3.683c0.828-1.034,1.968-1.804,3.423-2.311
		c1.454-0.508,3.402-0.764,5.848-0.764c2.582,0,4.484,0.196,5.716,0.592c1.229,0.393,2.253,1.004,3.076,1.834
		c0.82,0.827,1.504,1.948,2.046,3.363l-7.863,0.772c-0.207-0.692-0.544-1.202-1.02-1.526c-0.652-0.438-1.438-0.654-2.363-0.654
		c-0.937,0-1.621,0.164-2.048,0.498c-0.43,0.332-0.643,0.736-0.643,1.209c0,0.531,0.272,0.931,0.817,1.203
		c0.541,0.27,1.724,0.514,3.544,0.731c2.757,0.313,4.811,0.745,6.153,1.304c1.344,0.556,2.373,1.349,3.086,2.38
		c0.713,1.031,1.07,2.165,1.07,3.4c0,1.249-0.374,2.463-1.129,3.643c-0.755,1.182-1.944,2.121-3.567,2.819
		c-1.623,0.697-3.833,1.049-6.633,1.049c-3.951,0-6.768-0.563-8.443-1.692C43.43,187.379,42.354,185.774,41.88,183.698z"/>
	<path class="st0" d="M78.837,159.839v8.23h4.563v6.073h-4.563v7.665c0,0.922,0.089,1.533,0.265,1.83
		c0.272,0.46,0.747,0.693,1.426,0.693c0.61,0,1.466-0.18,2.566-0.531l0.612,5.723c-2.051,0.449-3.967,0.675-5.746,0.675
		c-2.065,0-3.587-0.265-4.563-0.796c-0.979-0.527-1.701-1.33-2.17-2.409c-0.469-1.079-0.702-2.826-0.702-5.241v-7.608h-3.056v-6.073
		h3.056v-3.973L78.837,159.839z"/>
	<path class="st0" d="M87.66,159.839h8.291v5.645H87.66V159.839z M87.66,168.069h8.291v21.639H87.66V168.069z"/>
	<path class="st0" d="M111.254,159.839v8.23h4.563v6.073h-4.563v7.665c0,0.922,0.086,1.533,0.263,1.83
		c0.272,0.46,0.747,0.693,1.426,0.693c0.612,0,1.468-0.18,2.568-0.531l0.612,5.723c-2.053,0.449-3.966,0.675-5.746,0.675
		c-2.064,0-3.587-0.265-4.563-0.796c-0.979-0.527-1.701-1.33-2.17-2.409c-0.469-1.079-0.704-2.826-0.704-5.241v-7.608h-3.057v-6.073
		h3.057v-3.973L111.254,159.839z"/>
	<path class="st0" d="M142.567,189.708h-7.741v-3.505c-1.155,1.44-2.319,2.466-3.494,3.075c-1.175,0.613-2.618,0.919-4.331,0.919
		c-2.282,0-4.072-0.684-5.368-2.048c-1.299-1.365-1.946-3.467-1.946-6.307v-13.773h8.334v11.901c0,1.357,0.25,2.321,0.752,2.892
		c0.503,0.57,1.21,0.855,2.12,0.855c0.993,0,1.805-0.382,2.433-1.143c0.634-0.758,0.949-2.125,0.949-4.093v-10.413h8.292V189.708z"
		/>
	<path class="st0" d="M157.603,159.839v8.23h4.566v6.073h-4.566v7.665c0,0.922,0.087,1.533,0.266,1.83
		c0.272,0.46,0.747,0.693,1.426,0.693c0.613,0,1.466-0.18,2.568-0.531l0.611,5.723c-2.051,0.449-3.967,0.675-5.746,0.675
		c-2.065,0-3.586-0.265-4.564-0.796c-0.977-0.527-1.701-1.33-2.17-2.409c-0.471-1.079-0.702-2.826-0.702-5.241v-7.608h-3.056v-6.073
		h3.056v-3.973L157.603,159.839z"/>
	<path class="st0" d="M165.102,178.951c0-3.302,1.111-6.022,3.34-8.161c2.228-2.139,5.236-3.209,9.027-3.209
		c4.333,0,7.604,1.254,9.818,3.769c1.781,2.024,2.671,4.516,2.671,7.48c0,3.327-1.105,6.052-3.311,8.178
		c-2.207,2.126-5.261,3.189-9.157,3.189c-3.477,0-6.289-0.884-8.436-2.649C166.419,185.359,165.102,182.495,165.102,178.951z
		 M173.413,178.931c0,1.928,0.391,3.353,1.173,4.279c0.78,0.922,1.763,1.383,2.942,1.383c1.196,0,2.18-0.453,2.946-1.363
		c0.768-0.911,1.15-2.371,1.15-4.382c0-1.874-0.387-3.269-1.159-4.186c-0.775-0.916-1.734-1.376-2.874-1.376
		c-1.209,0-2.206,0.466-2.995,1.398C173.809,175.612,173.413,177.028,173.413,178.931z"/>
	<path class="st0" d="M208.478,159.839h8.619l11.247,16.523v-16.523h8.699v29.869h-8.699l-11.185-16.399v16.399h-8.681V159.839z"/>
	<path class="st0" d="M250.184,175.08l-7.925-0.837c0.3-1.385,0.73-2.475,1.294-3.27c0.562-0.796,1.376-1.484,2.435-2.066
		c0.762-0.424,1.807-0.75,3.137-0.981c1.333-0.23,2.771-0.346,4.319-0.346c2.486,0,4.484,0.139,5.991,0.418
		c1.509,0.279,2.764,0.859,3.768,1.742c0.706,0.611,1.265,1.478,1.671,2.598c0.409,1.12,0.613,2.188,0.613,3.207v9.559
		c0,1.016,0.061,1.814,0.192,2.393c0.127,0.576,0.411,1.314,0.845,2.211h-7.783c-0.314-0.558-0.517-0.982-0.61-1.275
		c-0.096-0.291-0.192-0.748-0.286-1.374c-1.087,1.048-2.166,1.792-3.238,2.241c-1.468,0.598-3.173,0.897-5.115,0.897
		c-2.584,0-4.543-0.597-5.878-1.794c-1.338-1.197-2.007-2.668-2.007-4.42c0-1.645,0.482-2.995,1.445-4.057
		c0.967-1.058,2.746-1.846,5.338-2.361c3.112-0.625,5.129-1.062,6.052-1.314c0.921-0.252,1.902-0.581,2.933-0.988
		c0-1.02-0.21-1.733-0.631-2.141c-0.421-0.406-1.164-0.609-2.222-0.609c-1.356,0-2.376,0.217-3.054,0.651
		C250.938,173.503,250.51,174.143,250.184,175.08z M257.376,179.438c-1.141,0.406-2.329,0.768-3.564,1.08
		c-1.685,0.449-2.75,0.891-3.199,1.324c-0.464,0.449-0.693,0.959-0.693,1.527c0,0.651,0.227,1.188,0.682,1.599
		c0.455,0.417,1.122,0.622,2.008,0.622c0.923,0,1.783-0.225,2.576-0.67c0.794-0.449,1.359-0.998,1.692-1.643
		c0.332-0.645,0.499-1.483,0.499-2.517V179.438z"/>
	<path class="st0" d="M286.592,181.232l7.886,0.896c-0.435,1.644-1.148,3.065-2.138,4.269c-0.992,1.201-2.262,2.136-3.803,2.801
		c-1.539,0.665-3.501,0.999-5.876,0.999c-2.298,0-4.207-0.214-5.736-0.642c-1.527-0.428-2.842-1.121-3.942-2.076
		c-1.1-0.957-1.961-2.078-2.588-3.371c-0.624-1.287-0.937-2.997-0.937-5.127c0-2.225,0.382-4.077,1.143-5.559
		c0.555-1.087,1.315-2.059,2.28-2.92c0.965-0.862,1.955-1.504,2.974-1.926c1.617-0.663,3.688-0.996,6.214-0.996
		c3.533,0,6.226,0.631,8.081,1.894c1.852,1.265,3.155,3.112,3.9,5.541l-7.803,1.04c-0.245-0.924-0.688-1.618-1.336-2.088
		c-0.642-0.469-1.509-0.702-2.595-0.702c-1.374,0-2.483,0.49-3.333,1.473c-0.848,0.983-1.274,2.473-1.274,4.465
		c0,1.777,0.423,3.123,1.265,4.048c0.841,0.921,1.916,1.38,3.219,1.38c1.086,0,1.998-0.276,2.739-0.834
		C285.672,183.239,286.226,182.386,286.592,181.232z"/>
	<path class="st0" d="M298.593,159.839h8.293v5.645h-8.293V159.839z M298.593,168.069h8.293v21.639h-8.293V168.069z"/>
	<path class="st0" d="M311.164,178.951c0-3.302,1.114-6.022,3.341-8.161c2.23-2.139,5.24-3.209,9.025-3.209
		c4.336,0,7.609,1.254,9.822,3.769c1.779,2.024,2.672,4.516,2.672,7.48c0,3.327-1.107,6.052-3.311,8.178
		c-2.215,2.126-5.26,3.189-9.164,3.189c-3.477,0-6.287-0.884-8.434-2.649C312.482,185.359,311.164,182.495,311.164,178.951z
		 M319.479,178.931c0,1.928,0.389,3.353,1.172,4.279c0.775,0.922,1.76,1.383,2.943,1.383c1.193,0,2.178-0.453,2.945-1.363
		c0.764-0.911,1.152-2.371,1.152-4.382c0-1.874-0.393-3.269-1.166-4.186c-0.773-0.916-1.734-1.376-2.873-1.376
		c-1.211,0-2.207,0.466-2.994,1.398C319.872,175.612,319.479,177.028,319.479,178.931z"/>
	<path class="st0" d="M340.02,168.069h7.719v3.525c1.152-1.44,2.322-2.469,3.502-3.086c1.182-0.619,2.625-0.928,4.322-0.928
		c2.291,0,4.092,0.682,5.391,2.049c1.295,1.363,1.947,3.473,1.947,6.326v13.752h-8.34V177.81c0-1.357-0.246-2.32-0.754-2.885
		c-0.498-0.562-1.207-0.846-2.117-0.846c-1.006,0-1.82,0.384-2.441,1.143c-0.633,0.762-0.943,2.127-0.943,4.096v10.391h-8.285
		V168.069z"/>
	<path class="st0" d="M375.405,175.08l-7.926-0.837c0.303-1.385,0.732-2.475,1.295-3.27c0.562-0.796,1.375-1.484,2.432-2.066
		c0.764-0.424,1.812-0.75,3.143-0.981c1.33-0.23,2.766-0.346,4.32-0.346c2.484,0,4.482,0.139,5.986,0.418s2.768,0.859,3.772,1.742
		c0.705,0.611,1.264,1.478,1.666,2.598c0.41,1.12,0.617,2.188,0.617,3.207v9.559c0,1.016,0.059,1.814,0.191,2.393
		c0.133,0.576,0.412,1.314,0.846,2.211h-7.781c-0.316-0.558-0.523-0.982-0.613-1.275c-0.098-0.291-0.191-0.748-0.283-1.374
		c-1.09,1.048-2.168,1.792-3.242,2.241c-1.469,0.598-3.17,0.897-5.113,0.897c-2.578,0-4.541-0.597-5.875-1.794
		c-1.342-1.197-2.012-2.668-2.012-4.42c0-1.645,0.484-2.995,1.453-4.057c0.961-1.058,2.74-1.846,5.332-2.361
		c3.109-0.625,5.131-1.062,6.055-1.314c0.924-0.252,1.9-0.581,2.935-0.988c0-1.02-0.211-1.733-0.637-2.141
		c-0.42-0.406-1.16-0.609-2.217-0.609c-1.363,0-2.377,0.217-3.061,0.651C376.163,173.503,375.733,174.143,375.405,175.08z
		 M382.602,179.438c-1.143,0.406-2.332,0.768-3.566,1.08c-1.684,0.449-2.754,0.891-3.201,1.324
		c-0.463,0.449-0.695,0.959-0.695,1.527c0,0.651,0.229,1.188,0.686,1.599c0.457,0.417,1.121,0.622,2.004,0.622
		c0.922,0,1.783-0.225,2.582-0.67c0.791-0.449,1.353-0.998,1.688-1.643c0.334-0.645,0.504-1.483,0.504-2.517V179.438z"/>
	<path class="st0" d="M395.963,159.839h8.312v29.869h-8.312V159.839z"/>
	<path class="st0" d="M424.018,159.839h24.738v6.377h-15.488v4.746h14.367v6.094h-14.367v5.887H449.2v6.766h-25.182V159.839z"/>
	<path class="st0" d="M453.909,159.839h8.315v29.869h-8.315V159.839z"/>
	<path class="st0" d="M491.538,180.946h-16.625c0.15,1.332,0.512,2.323,1.084,2.976c0.795,0.937,1.842,1.405,3.137,1.405
		c0.814,0,1.592-0.205,2.322-0.613c0.447-0.255,0.934-0.71,1.445-1.363l8.166,0.754c-1.242,2.172-2.752,3.73-4.518,4.676
		c-1.766,0.944-4.297,1.417-7.6,1.417c-2.871,0-5.121-0.404-6.768-1.214c-1.643-0.807-3.004-2.092-4.084-3.85
		c-1.078-1.761-1.623-3.825-1.623-6.203c0-3.385,1.088-6.121,3.252-8.211c2.168-2.094,5.162-3.139,8.977-3.139
		c3.1,0,5.541,0.469,7.334,1.405c1.793,0.938,3.156,2.296,4.092,4.075c0.938,1.781,1.408,4.094,1.408,6.948V180.946z
		 M483.102,176.974c-0.166-1.601-0.594-2.752-1.289-3.444c-0.705-0.692-1.623-1.04-2.762-1.04c-1.318,0-2.369,0.523-3.156,1.571
		c-0.502,0.651-0.822,1.624-0.959,2.913H483.102z"/>
	<path class="st0" d="M511.485,181.232l7.889,0.896c-0.44,1.644-1.152,3.065-2.141,4.269c-0.996,1.201-2.26,2.136-3.801,2.801
		c-1.549,0.665-3.502,0.999-5.879,0.999c-2.297,0-4.203-0.214-5.734-0.642c-1.527-0.428-2.84-1.121-3.947-2.076
		c-1.098-0.957-1.961-2.078-2.588-3.371c-0.621-1.287-0.934-2.997-0.934-5.127c0-2.225,0.381-4.077,1.139-5.559
		c0.562-1.087,1.318-2.059,2.283-2.92c0.965-0.862,1.957-1.504,2.973-1.926c1.623-0.663,3.693-0.996,6.219-0.996
		c3.529,0,6.223,0.631,8.08,1.894c1.852,1.265,3.15,3.112,3.898,5.541l-7.805,1.04c-0.242-0.924-0.691-1.618-1.33-2.088
		c-0.65-0.469-1.514-0.702-2.602-0.702c-1.373,0-2.479,0.49-3.334,1.473c-0.846,0.983-1.271,2.473-1.271,4.465
		c0,1.777,0.422,3.123,1.262,4.048c0.842,0.921,1.912,1.38,3.219,1.38c1.088,0,2.004-0.276,2.744-0.834
		C510.565,183.239,511.12,182.386,511.485,181.232z"/>
	<path class="st0" d="M533.184,159.839v8.23h4.562v6.073h-4.562v7.665c0,0.922,0.09,1.533,0.264,1.83
		c0.275,0.46,0.752,0.693,1.426,0.693c0.615,0,1.469-0.18,2.57-0.531l0.615,5.723c-2.06,0.449-3.971,0.675-5.754,0.675
		c-2.059,0-3.58-0.265-4.56-0.796c-0.979-0.527-1.699-1.33-2.172-2.409c-0.465-1.079-0.699-2.826-0.699-5.241v-7.608h-3.059v-6.073
		h3.059v-3.973L533.184,159.839z"/>
	<path class="st0" d="M540.682,178.951c0-3.302,1.111-6.022,3.344-8.161c2.227-2.139,5.234-3.209,9.025-3.209
		c4.33,0,7.606,1.254,9.818,3.769c1.773,2.024,2.666,4.516,2.666,7.48c0,3.327-1.102,6.052-3.307,8.178
		c-2.213,2.126-5.258,3.189-9.164,3.189c-3.475,0-6.283-0.884-8.432-2.649C541.999,185.359,540.682,182.495,540.682,178.951z
		 M548.997,178.931c0,1.928,0.389,3.353,1.17,4.279c0.781,0.922,1.76,1.383,2.945,1.383c1.197,0,2.176-0.453,2.945-1.363
		c0.762-0.911,1.152-2.371,1.152-4.382c0-1.874-0.394-3.269-1.168-4.186c-0.771-0.916-1.732-1.376-2.875-1.376
		c-1.209,0-2.205,0.466-2.992,1.398C549.389,175.612,548.997,177.028,548.997,178.931z"/>
	<path class="st0" d="M569.61,168.069h7.764v3.545c0.746-1.534,1.519-2.591,2.314-3.167c0.795-0.578,1.775-0.866,2.945-0.866
		c1.219,0,2.561,0.381,4.016,1.141l-2.57,5.908c-0.978-0.408-1.752-0.611-2.324-0.611c-1.088,0-1.93,0.449-2.529,1.346
		c-0.854,1.264-1.279,3.626-1.279,7.092v7.252h-8.336V168.069z"/>
	<path class="st0" d="M596.323,175.08l-7.928-0.837c0.301-1.385,0.73-2.475,1.299-3.27c0.562-0.796,1.371-1.484,2.434-2.066
		c0.758-0.424,1.809-0.75,3.135-0.981c1.336-0.23,2.771-0.346,4.316-0.346c2.488,0,4.49,0.139,5.992,0.418
		c1.51,0.279,2.771,0.859,3.777,1.742c0.703,0.611,1.262,1.478,1.662,2.598c0.414,1.12,0.613,2.188,0.613,3.207v9.559
		c0,1.016,0.064,1.814,0.197,2.393c0.123,0.576,0.408,1.314,0.846,2.211h-7.783c-0.314-0.558-0.52-0.982-0.615-1.275
		c-0.094-0.291-0.189-0.748-0.279-1.374c-1.088,1.048-2.17,1.792-3.244,2.241c-1.467,0.598-3.168,0.897-5.111,0.897
		c-2.584,0-4.547-0.597-5.881-1.794c-1.336-1.197-2.006-2.668-2.006-4.42c0-1.645,0.484-2.995,1.443-4.057
		c0.971-1.058,2.744-1.846,5.342-2.361c3.109-0.625,5.125-1.062,6.051-1.314c0.926-0.252,1.904-0.581,2.93-0.988
		c0-1.02-0.211-1.733-0.621-2.141c-0.426-0.406-1.168-0.609-2.225-0.609c-1.361,0-2.381,0.217-3.059,0.651
		C597.079,173.503,596.649,174.143,596.323,175.08z M603.512,179.438c-1.139,0.406-2.326,0.768-3.566,1.08
		c-1.684,0.449-2.744,0.891-3.191,1.324c-0.467,0.449-0.695,0.959-0.695,1.527c0,0.651,0.229,1.188,0.686,1.599
		c0.453,0.417,1.125,0.622,2.002,0.622c0.926,0,1.783-0.225,2.58-0.67c0.795-0.449,1.357-0.998,1.686-1.643
		c0.34-0.645,0.5-1.483,0.5-2.517V179.438z"/>
	<path class="st0" d="M616.883,159.839h8.312v29.869h-8.312V159.839z"/>
</g>
</svg>