<!-- Generator: Adobe Illustrator 21.1.0, SVG Export Plug-In  -->
<svg version="1.1"
	 xmlns="http://www.w3.org/2000/svg" xmlns:xlink="http://www.w3.org/1999/xlink" xmlns:a="http://ns.adobe.com/AdobeSVGViewerExtensions/3.0/"
	 x="0px" y="0px" width="110.549px" height="140.719px" viewBox="0 0 110.549 140.719"
	 style="enable-background:new 0 0 110.549 140.719;" xml:space="preserve">
<style type="text/css">
	.st0{fill:#4C8DC6;}
</style>
<defs>
</defs>
<path class="st0" d="M15.057,130.672c-2.786,0-5.038-2.251-5.038-5.038c0.028-2.758,2.28-5.01,5.038-5.01h95.492V10.047
	C110.549,4.503,106.046,0,100.502,0H10.047C4.503,0,0,4.503,0,10.047v120.624c0,5.544,4.503,10.047,10.047,10.047h90.454
	c5.544,0,10.047-4.503,10.047-10.047H15.057z M35.488,59.883c0-8.476,2.028-15.095,6.086-19.859
	c4.059-4.764,9.721-7.146,16.989-7.146c6.241,0,11.197,1.547,14.871,4.642c3.672,3.096,5.881,7.545,6.626,13.349h-9.555
	c-1.078-6.754-4.995-10.132-11.749-10.132c-4.367,0-7.686,1.572-9.959,4.715c-2.272,3.144-3.448,7.756-3.524,13.837v4.311
	c0,6.056,1.277,10.758,3.833,14.106c2.555,3.349,6.105,5.022,10.651,5.022c4.982,0,8.526-1.13,10.633-3.39V68.359H58.834v-7.396
	h21.265v21.496c-2.029,2.646-4.841,4.649-8.437,6.01c-3.596,1.361-7.68,2.042-12.251,2.042c-4.7,0-8.86-1.065-12.481-3.197
	s-6.414-5.182-8.379-9.149c-1.965-3.969-2.986-8.598-3.062-13.889V59.883z"/>
</svg>