<!-- Generator: Adobe Illustrator 21.1.0, SVG Export Plug-In  -->
<svg version="1.1"
	 xmlns="http://www.w3.org/2000/svg" xmlns:xlink="http://www.w3.org/1999/xlink" xmlns:a="http://ns.adobe.com/AdobeSVGViewerExtensions/3.0/"
	 x="0px" y="0px" width="141.832px" height="141.535px" viewBox="0 0 141.832 141.535"
	 style="enable-background:new 0 0 141.832 141.535;" xml:space="preserve">
<style type="text/css">
	.st0{fill:#FFFFFF;}
</style>
<defs>
</defs>
<g>
	<path class="st0" d="M141.832,135.66l-13.051-19.836c7.98-6.975,13.037-17.217,13.037-28.623c0-18.826-13.758-34.49-31.746-37.49
		V27.848L82.414,0H31.428v63.838C22,66.1,14.965,74.576,14.965,84.688c0,10.137,7.07,18.635,16.535,20.869
		C13.745,107.918,0,123.146,0,141.535h10c0-14.506,11.802-26.307,26.308-26.307c14.506,0,26.308,11.801,26.308,26.307h10
		c0-18.332-13.662-33.525-31.338-35.957c6.609-1.535,12.052-6.119,14.758-12.197l10.263,0.02
		c2.97,18.023,18.651,31.818,37.503,31.818c5.973,0,11.624-1.387,16.657-3.851l13.019,19.789L141.832,135.66z M85.333,17.131
		l7.726,7.777h-7.726V17.131z M75.333,10v24.908h24.739v14.461C82.105,51.127,67.766,65.441,65.975,83.4l-8.149-0.016
		C57.248,73.855,50.444,66,41.428,63.838V10H75.333z M36.428,96.15c-6.32,0-11.463-5.143-11.463-11.463s5.143-11.463,11.463-11.463
		c6.321,0,11.463,5.143,11.463,11.463S42.749,96.15,36.428,96.15z M75.784,87.201c0-15.449,12.568-28.018,28.017-28.018
		c15.449,0,28.018,12.568,28.018,28.018c0,15.449-12.568,28.017-28.018,28.017C88.353,115.219,75.784,102.65,75.784,87.201z"/>
	<rect x="88.36" y="75.117" class="st0" width="35.5" height="10"/>
	<rect x="88.36" y="92.986" class="st0" width="23.47" height="10"/>
</g>
</svg>